<?xml version="1.0" encoding="UTF-8" standalone="no"?>
<!-- Created with Inkscape (http://www.inkscape.org/) -->

<svg
   version="1.1"
   id="svg2"
   width="2040.4399"
   height="761.51465"
   viewBox="0 0 2040.4399 761.51465"
   sodipodi:docname="RapidAim logo.ai"
   xmlns:inkscape="http://www.inkscape.org/namespaces/inkscape"
   xmlns:sodipodi="http://sodipodi.sourceforge.net/DTD/sodipodi-0.dtd"
   xmlns="http://www.w3.org/2000/svg"
   xmlns:svg="http://www.w3.org/2000/svg">
  <defs
     id="defs6">
    <clipPath
       clipPathUnits="userSpaceOnUse"
       id="clipPath16">
      <path
         d="M 0,571.136 H 1530.326 V 0 H 0 Z"
         id="path14" />
    </clipPath>
  </defs>
  <sodipodi:namedview
     id="namedview4"
     pagecolor="#ffffff"
     bordercolor="#000000"
     borderopacity="0.25"
     inkscape:showpageshadow="2"
     inkscape:pageopacity="0.0"
     inkscape:pagecheckerboard="0"
     inkscape:deskcolor="#d1d1d1" />
  <g
     id="g8"
     inkscape:groupmode="layer"
     inkscape:label="RapidAim logo"
     transform="matrix(1.3333333,0,0,-1.3333333,0,761.51467)">
    <g
       id="g10">
      <g
         id="g12"
         clip-path="url(#clipPath16)">
        <g
           id="g18"
           transform="translate(399.824,368.9583)">
          <path
             d="m 0,0 v -68.624 h 49.72 c 23.824,0 40.915,12.431 40.915,34.442 C 90.635,-11.912 75.356,0 49.72,0 Z m 52.31,21.234 c 37.807,0 63.703,-18.644 63.703,-51.014 0,-26.155 -18.386,-44.8 -47.908,-48.943 19.941,-3.366 30.817,-12.689 39.88,-33.664 l 22.271,-51.274 h -27.709 l -19.422,46.095 c -9.84,23.306 -18.903,27.708 -44.799,27.708 H 0 v -73.803 H -24.859 V 21.234 Z"
             style="fill:#151560;fill-opacity:1;fill-rule:nonzero;stroke:none"
             id="path20" />
        </g>
        <g
           id="g22"
           transform="translate(587.0457,220.576)">
          <path
             d="M 0,0 C 21.235,0 39.103,11.653 39.103,33.406 V 49.202 L 10.617,44.541 C -13.465,40.656 -23.306,32.37 -23.306,19.163 -23.306,7.769 -16.055,0 0,0 M 42.729,-15.278 C 40.397,-7.51 39.362,0.518 39.103,12.689 31.853,-4.92 14.761,-18.386 -8.545,-18.386 c -17.868,0 -37.549,10.359 -37.549,35.736 0,22.012 13.466,35.995 48.425,41.692 l 36.254,5.957 v 6.732 c 0,22.789 -11.912,31.852 -30.557,31.852 -17.609,0 -29.78,-5.956 -31.075,-30.816 h -20.457 c 1.035,34.442 25.637,49.72 53.086,49.72 35.736,0 51.273,-18.386 51.273,-48.425 V 23.306 c 0,-17.091 1.554,-29.262 4.144,-38.584 z"
             style="fill:#151560;fill-opacity:1;fill-rule:nonzero;stroke:none"
             id="path24" />
        </g>
        <g
           id="g26"
           transform="translate(786.696,272.6263)">
          <path
             d="m 0,0 c 0,32.111 -18.386,51.533 -41.434,51.533 -19.939,0 -39.879,-14.243 -39.879,-48.426 v -6.214 c 0,-34.183 19.94,-48.425 39.879,-48.425 C -18.386,-51.532 0,-32.11 0,0 M -81.313,67.329 V 35.736 c 6.474,19.94 24.601,34.701 46.613,34.701 32.11,0 58.524,-27.45 58.524,-70.437 0,-42.987 -27.968,-70.436 -57.748,-70.436 -21.493,0 -39.62,13.983 -46.871,33.405 v -76.909 h -22.788 V 67.329 Z"
             style="fill:#151560;fill-opacity:1;fill-rule:nonzero;stroke:none"
             id="path28" />
        </g>
        <path
           d="m 859.199,205.298 h -22.788 v 134.658 h 22.788 z m 0,161.589 h -22.788 v 23.306 h 22.788 z"
           style="fill:#151560;fill-opacity:1;fill-rule:nonzero;stroke:none"
           id="path30" />
        <g
           id="g32"
           transform="translate(908.9177,272.6263)">
          <path
             d="m 0,0 c 0,-32.11 18.386,-51.532 41.433,-51.532 19.94,0 39.88,14.242 39.88,48.425 v 6.214 c 0,34.183 -19.94,48.426 -39.88,48.426 C 18.386,51.533 0,32.111 0,0 m 81.313,-67.329 v 31.593 c -6.474,-19.94 -24.601,-34.7 -46.613,-34.7 -32.11,0 -58.524,27.449 -58.524,70.436 0,42.987 27.968,70.437 57.747,70.437 21.494,0 39.621,-13.984 46.872,-33.406 v 83.643 h 22.788 V -67.329 Z"
             style="fill:#151560;fill-opacity:1;fill-rule:nonzero;stroke:none"
             id="path34" />
        </g>
        <g
           id="g36"
           transform="translate(1149.4841,275.7337)">
          <path
             d="m 0,0 -32.888,96.332 h -1.553 L -67.329,0 Z M -16.832,114.459 51.015,-70.436 h -27.45 l -16.833,49.72 h -80.794 l -16.832,-49.72 h -25.896 l 67.847,184.895 z"
             style="fill:#151560;fill-opacity:1;fill-rule:nonzero;stroke:none"
             id="path38" />
        </g>
        <path
           d="m 1248.14,205.298 h -24.859 v 184.895 h 24.859 z"
           style="fill:#151560;fill-opacity:1;fill-rule:nonzero;stroke:none"
           id="path40" />
        <g
           id="g42"
           transform="translate(1312.6179,372.0657)">
          <path
             d="m 0,0 h -0.259 c 0.518,-29.262 0.518,-58.265 0.518,-87.527 v -79.241 H -23.047 V 18.127 H 18.904 L 74.32,-148.382 129.996,18.127 h 43.246 v -184.895 h -24.859 v 79.241 c 0,29.262 0,58.265 0.517,87.527 h -0.517 L 91.671,-166.768 h -34.7 z"
             style="fill:#151560;fill-opacity:1;fill-rule:nonzero;stroke:none"
             id="path44" />
        </g>
        <g
           id="g46"
           transform="translate(142.6917,503.3405)">
          <path
             d="m 0,0 c -39.225,-8.584 -77.091,-31.467 -96.919,-67.269 -17.293,-31.223 -17.938,-60.586 -9.588,-94.531 4.725,-19.205 10.844,-33.847 18.897,-51.638 20.074,-44.348 47.17,-86.185 73.154,-127.228 4.716,-7.45 9.752,-16.591 16.174,-22.522 0.172,-0.517 -0.181,-1.214 0,-1.722 0.449,-1.256 1.672,-1.608 1.718,-1.721 2.123,-5.244 10.707,-21.087 14.576,-24.142 2.857,-2.255 3.099,-0.781 5.07,1.876 17.765,23.943 37.386,58.27 53.219,84.376 27.326,45.058 61.524,99.256 71.434,151.328 2.029,10.661 3.514,18.174 3.436,29.261 C 150.794,-70.703 112.108,-23.634 62.759,-6.827 55.153,-4.236 46.576,-3.777 39.51,0 h 118.532 v -395.893 h -271.42 V 0 Z"
             style="fill:#ffffff;fill-opacity:1;fill-rule:nonzero;stroke:none"
             id="path48" />
        </g>
        <g
           id="g50"
           transform="translate(161.198,421.9671)">
          <path
             d="M 0,0 C -64.865,-1.733 -62.434,-101.85 2.981,-99.47 66.807,-97.148 64.257,1.716 0,0 m -0.242,81.373 c 10.849,0 21.651,-1.299 32.218,-3.754 4.123,-0.958 8.33,-1.728 12.277,-3.073 49.349,-16.807 88.035,-63.875 88.411,-117.104 -44.34,-48.991 -120.881,-63.544 -152.133,-123.878 -4.332,-1.028 -64.763,40.189 -71.994,46.472 -13.702,11.904 -21.981,25.957 -33.55,39.538 -8.35,33.944 -7.705,63.307 9.588,94.53 14.342,25.898 38.123,45.036 65.029,56.891 15.786,6.956 32.903,10.378 50.154,10.378 z"
             style="fill:#fbd00e;fill-opacity:1;fill-rule:nonzero;stroke:none"
             id="path52" />
        </g>
        <g
           id="g54"
           transform="translate(146.1273,136.7096)">
          <path
             d="m 0,0 -1.099,2.091 c -0.182,0.507 -0.447,0.835 -0.619,1.352 -8.298,24.928 -12.516,62.816 -3.436,87.784 15.74,43.278 83.08,70.259 119.073,96.71 10.706,7.868 20.603,16.561 30.38,25.501 C 134.39,161.366 100.192,107.168 72.865,62.11 57.033,36.004 37.411,1.677 19.647,-22.266 17.675,-24.923 17.434,-26.397 14.577,-24.142 10.707,-21.087 2.124,-5.244 0,0"
             style="fill:#63c193;fill-opacity:1;fill-rule:nonzero;stroke:none"
             id="path56" />
        </g>
        <g
           id="g58"
           transform="translate(290.4265,350.1473)">
          <path
             d="m 0,0 c -9.778,-8.94 -19.674,-17.633 -30.38,-25.501 -35.993,-26.451 -103.333,-53.431 -119.073,-96.709 -29.475,19.549 -61.063,36.303 -85.892,61.965 -8.053,17.792 -14.172,32.433 -18.896,51.639 11.569,-13.581 19.848,-27.634 33.549,-39.538 7.232,-6.283 67.663,-47.5 71.995,-46.472 31.252,60.333 107.793,74.887 152.133,123.878 C 3.514,18.174 2.029,10.661 0,0"
             style="fill:#f8b517;fill-opacity:1;fill-rule:nonzero;stroke:none"
             id="path60" />
        </g>
        <g
           id="g62"
           transform="translate(140.9738,227.937)">
          <path
             d="m 0,0 c -9.081,-24.969 -4.863,-62.856 3.436,-87.785 -6.422,5.932 -11.459,15.073 -16.175,22.522 C -38.722,-24.22 -65.818,17.618 -85.892,61.966 -61.064,36.303 -29.475,19.549 0,0"
             style="fill:#a9d49b;fill-opacity:1;fill-rule:nonzero;stroke:none"
             id="path64" />
        </g>
        <g
           id="g66"
           transform="translate(161.198,421.9671)">
          <path
             d="M 0,0 C 64.257,1.716 66.807,-97.148 2.981,-99.47 -62.434,-101.85 -64.865,-1.733 0,0"
             style="fill:#ffffff;fill-opacity:1;fill-rule:nonzero;stroke:none"
             id="path68" />
        </g>
      </g>
    </g>
  </g>
</svg>
